<svg width="124" height="40" viewBox="0 0 124 40" fill="none" xmlns="http://www.w3.org/2000/svg">
  <path d="M26.9867 20.32C28.4878 18.8189 29.3311 16.7829 29.3311 14.66C29.3311 12.5371 28.4878 10.5011 26.9867 9.00001C25.4855 7.49888 23.4496 6.65556 21.3267 6.65556C19.2037 6.65556 17.1678 7.49888 15.6667 9.00001L6.66666 18V29.3333H18L26.9867 20.32Z" stroke="white" stroke-width="2.5" stroke-linecap="round" stroke-linejoin="round"/>
  <path d="M21.3333 14.6667L2.66666 33.3333" stroke="white" stroke-width="2.5" stroke-linecap="round" stroke-linejoin="round"/>
  <path d="M23.3333 24H12" stroke="white" stroke-width="2.5" stroke-linecap="round" stroke-linejoin="round"/>
  <path d="M38.839 11.4931H42.5496L45.3886 28.5069H42.6492L42.1512 25.1285V25.1771H39.0382L38.5402 28.5069H36L38.839 11.4931ZM41.8274 22.8681L40.6071 14.4583H40.5573L39.362 22.8681H41.8274Z" fill="white"/>
  <path d="M46.7176 11.4931H50.9014C52.2628 11.4931 53.2838 11.8495 53.9645 12.5625C54.6452 13.2755 54.9856 14.3206 54.9856 15.6979V24.3021C54.9856 25.6794 54.6452 26.7245 53.9645 27.4375C53.2838 28.1505 52.2628 28.5069 50.9014 28.5069H46.7176V11.4931ZM50.8516 26.0764C51.2999 26.0764 51.6402 25.9468 51.8726 25.6875C52.1217 25.4282 52.2462 25.0069 52.2462 24.4236V15.5764C52.2462 14.9931 52.1217 14.5718 51.8726 14.3125C51.6402 14.0532 51.2999 13.9236 50.8516 13.9236H49.457V26.0764H50.8516Z" fill="white"/>
  <path d="M56.0638 11.4931H58.8281L60.6211 24.691H60.6709L62.464 11.4931H64.9792L62.3395 28.5069H58.7036L56.0638 11.4931Z" fill="white"/>
  <path d="M70.18 28.75C68.8352 28.75 67.8141 28.3854 67.1169 27.6562C66.4362 26.9271 66.0958 25.8819 66.0958 24.5208V23.1354H68.6858V24.6424C68.6858 25.7604 69.1589 26.3194 70.1053 26.3194C70.5701 26.3194 70.9188 26.1817 71.1512 25.9063C71.4002 25.6146 71.5248 25.1123 71.5248 24.3993V23.0139C71.5248 22.2361 71.3836 21.6852 71.1014 21.3611C70.8192 21.0208 70.3626 20.8507 69.7317 20.8507H68.8103V18.4201H69.8064C70.3543 18.4201 70.7611 18.2824 71.0267 18.0069C71.3089 17.7315 71.4501 17.2697 71.4501 16.6215V15.3819C71.4501 14.7986 71.3255 14.3692 71.0765 14.0937C70.8275 13.8183 70.4954 13.6806 70.0804 13.6806C69.2004 13.6806 68.7605 14.2072 68.7605 15.2604V16.3785H66.1705V15.4792C66.1705 14.1181 66.5109 13.0729 67.1916 12.3438C67.8889 11.6146 68.885 11.25 70.18 11.25C71.4916 11.25 72.4877 11.6146 73.1684 12.3438C73.8491 13.0567 74.1894 14.0938 74.1894 15.4549V16.0625C74.1894 16.9861 74.0317 17.7315 73.7163 18.2986C73.4008 18.8495 72.9111 19.2465 72.247 19.4896V19.5382C72.9609 19.7975 73.4755 20.2187 73.791 20.8021C74.1064 21.3854 74.2641 22.1308 74.2641 23.0382V24.5451C74.2641 25.9062 73.9155 26.9514 73.2182 27.6806C72.5375 28.3935 71.5248 28.75 70.18 28.75Z" fill="white"/>
  <path d="M76.2661 11.4931H79.7028L82.3675 21.6771H82.4173V11.4931H84.8578V28.5069H82.0437L78.7565 16.0868H78.7067V28.5069H76.2661V11.4931Z" fill="white"/>
  <path d="M89.0356 13.9236H86.1717V11.4931H94.6389V13.9236H91.775V28.5069H89.0356V13.9236Z" fill="white"/>
  <path d="M99.9497 28.75C98.6215 28.75 97.6088 28.3854 96.9115 27.6562C96.2142 26.9109 95.8655 25.8495 95.8655 24.4722V11.4931H98.6049V24.6667C98.6049 25.25 98.7211 25.6713 98.9536 25.9306C99.2026 26.1898 99.5513 26.3194 99.9995 26.3194C100.448 26.3194 100.788 26.1898 101.021 25.9306C101.27 25.6713 101.394 25.25 101.394 24.6667V11.4931H104.034V24.4722C104.034 25.8495 103.685 26.9109 102.988 27.6562C102.291 28.3854 101.278 28.75 99.9497 28.75Z" fill="white"/>
  <path d="M105.985 11.4931H110.044C111.455 11.4931 112.485 11.8171 113.132 12.4653C113.78 13.0972 114.103 14.0775 114.103 15.4062V16.4514C114.103 18.2176 113.506 19.3356 112.31 19.8056V19.8542C112.974 20.0486 113.439 20.4456 113.705 21.0451C113.987 21.6447 114.128 22.4468 114.128 23.4514V26.441C114.128 26.9271 114.145 27.3241 114.178 27.6319C114.211 27.9236 114.294 28.2153 114.427 28.5069H111.638C111.538 28.2315 111.472 27.9722 111.439 27.7292C111.406 27.4861 111.389 27.0486 111.389 26.4167V23.3056C111.389 22.5278 111.256 21.985 110.99 21.6771C110.741 21.3692 110.301 21.2153 109.671 21.2153H108.724V28.5069H105.985V11.4931ZM109.72 18.7847C110.268 18.7847 110.675 18.647 110.941 18.3715C111.223 18.0961 111.364 17.6343 111.364 16.9861V15.6736C111.364 15.0579 111.248 14.6123 111.015 14.3368C110.8 14.0613 110.451 13.9236 109.969 13.9236H108.724V18.7847H109.72Z" fill="white"/>
  <path d="M116.029 11.4931H123.5V13.9236H118.768V18.4201H122.529V20.8507H118.768V26.0764H123.5V28.5069H116.029V11.4931Z" fill="white"/>
</svg>
