<svg width="40" height="40" viewBox="0 0 40 40" fill="none" xmlns="http://www.w3.org/2000/svg">
  <path d="M37.5667 10.7C37.3687 9.90904 36.9655 9.18431 36.3978 8.59903C35.8301 8.01375 35.118 7.58866 34.3334 7.36669C31.4667 6.66669 20 6.66669 20 6.66669C20 6.66669 8.53336 6.66669 5.66669 7.43335C4.88211 7.65533 4.16999 8.08042 3.60227 8.6657C3.03455 9.25097 2.63134 9.9757 2.43336 10.7667C1.90872 13.6759 1.65209 16.6272 1.66669 19.5834C1.64799 22.5618 1.90464 25.5355 2.43336 28.4667C2.65163 29.2331 3.06387 29.9303 3.63027 30.4908C4.19666 31.0514 4.89806 31.4564 5.66669 31.6667C8.53336 32.4334 20 32.4334 20 32.4334C20 32.4334 31.4667 32.4334 34.3334 31.6667C35.118 31.4447 35.8301 31.0196 36.3978 30.4343C36.9655 29.8491 37.3687 29.1243 37.5667 28.3334C38.0873 25.446 38.3439 22.5172 38.3334 19.5834C38.3521 16.6049 38.0954 13.6312 37.5667 10.7V10.7Z" stroke="white" stroke-width="3.33333" stroke-linecap="round" stroke-linejoin="round"/>
  <path d="M16.25 25.0334L25.8333 19.5834L16.25 14.1334V25.0334Z" stroke="white" stroke-width="3.33333" stroke-linecap="round" stroke-linejoin="round"/>
</svg>
